<svg xmlns="http://www.w3.org/2000/svg" width="101" height="66"><path fill="#F7D022" fill-rule="nonzero" d="M.297 65.827H.074V.079h100c0 10.005 0 20.014-.024 30.065-1.301 1.318-2.584 2.59-3.856 3.873a616.445 616.445 0 0 0-3.782 3.855c-.81.832-1.599 1.685-2.415 2.512a390.325 390.325 0 0 1-4.386 4.394 46.917 46.917 0 0 1-2.568 2.37 113.384 113.384 0 0 1-3.732 3 34.004 34.004 0 0 1-5.25 3.359c-1.319.68-2.677 1.29-4.045 1.869-2.017.855-4.12 1.455-6.275 1.844a69.534 69.534 0 0 1-4.472.666c-1.347.154-2.707.29-4.06.287-2.267-.006-4.534-.184-6.8-.19-2.831-.008-5.663.082-8.494.136-.65.012-1.3.044-1.95.074-.38.017-.76.037-1.136.076-1.116.117-2.23.245-3.345.366-.945.102-1.895.175-2.836.308-1.396.197-2.788.421-4.177.659-1.448.248-2.894.506-4.334.796-1.51.303-3.016.63-4.517.98-2.41.563-4.819 1.132-7.218 1.737-2.305.582-4.598 1.212-6.894 1.827-1.073.287-2.141.59-3.211.885Z"/></svg>