<svg width="32" height="26" viewBox="0 0 32 26" fill="none" xmlns="http://www.w3.org/2000/svg">
<path d="M13.3995 0.193279C13.7195 1.15328 13.8795 1.95328 13.8795 2.59328C13.8795 3.16928 13.7835 3.93728 13.5915 4.89728C9.3035 4.89728 7.1595 7.10528 7.1595 11.5213C7.1595 13.1213 7.9915 14.0173 9.6555 14.2093C12.0875 14.4013 13.3035 15.9693 13.3035 18.9133C13.3035 21.1533 12.7595 22.8813 11.6715 24.0973C10.6475 25.2493 8.7595 25.8253 6.0075 25.8253C2.2315 25.8253 0.343496 23.2653 0.343496 18.1453C0.343496 13.0253 1.3675 8.76928 3.4155 5.37728C5.4635 1.92128 8.7915 0.193279 13.3995 0.193279ZM30.7755 0.193279C31.0955 1.15328 31.2555 1.95328 31.2555 2.59328C31.2555 3.16928 31.1595 3.93728 30.9675 4.89728C26.6795 4.89728 24.5355 7.10528 24.5355 11.5213C24.5355 13.1213 25.3675 14.0173 27.0315 14.2093C29.4635 14.4013 30.6795 15.9693 30.6795 18.9133C30.6795 21.1533 30.1355 22.8813 29.0475 24.0973C28.0235 25.2493 26.1355 25.8253 23.3835 25.8253C19.6075 25.8253 17.7195 23.2653 17.7195 18.1453C17.7195 13.0253 18.7435 8.76928 20.7915 5.37728C22.8395 1.92128 26.1675 0.193279 30.7755 0.193279Z" fill="#FFC91C"/>
</svg>
