<svg width="286" height="232" viewBox="0 0 286 232" fill="none" xmlns="http://www.w3.org/2000/svg">
<rect x="83.5693" y="95.1191" width="129.999" height="110.442" rx="33" fill="#CFCFCF"/>
<path fill-rule="evenodd" clip-rule="evenodd" d="M92.3645 159.169L96.7532 151.755C100.157 146.004 101.859 143.128 104.593 141.538C107.327 139.948 110.769 139.889 117.653 139.77C127.817 139.595 134.191 138.972 139.537 136.758C149.455 132.65 157.335 124.769 161.444 114.851C164.525 107.412 164.525 97.9816 164.525 79.1208V71.0251C164.525 44.5241 164.525 31.2736 158.56 21.5397C155.222 16.093 150.643 11.5136 145.196 8.1759C135.462 2.21094 122.212 2.21094 95.7108 2.21094H71.4235C44.9225 2.21094 31.672 2.21094 21.9381 8.1759C16.4914 11.5136 11.9121 16.093 8.57434 21.5397C2.60938 31.2736 2.60938 44.5241 2.60938 71.0251V79.1208C2.60938 97.9816 2.60938 107.412 5.69065 114.851C9.79901 124.769 17.6792 132.65 27.5977 136.758C32.9434 138.972 39.3174 139.595 49.4805 139.77C56.3647 139.889 59.8068 139.948 62.5407 141.538C65.2747 143.128 66.9767 146.004 70.3808 151.755L74.7695 159.169C78.6811 165.778 88.4529 165.778 92.3645 159.169ZM47.1362 64.6679C47.1362 78.8565 64.6498 93.9394 75.3909 101.856C79.0678 104.565 80.9062 105.92 83.5672 105.92C86.2282 105.92 88.0666 104.566 91.7435 101.856C102.485 93.9396 119.998 78.8567 119.998 64.6678C119.998 42.9941 99.9605 34.9022 83.5672 51.6449C67.1738 34.9022 47.1362 42.9941 47.1362 64.6679Z" fill="#FFC91C"/>
<path d="M92.3645 159.169L94.0856 160.188L92.3645 159.169ZM96.7532 151.755L95.0321 150.736L96.7532 151.755ZM70.3808 151.755L68.6597 152.774L70.3808 151.755ZM74.7695 159.169L76.4906 158.151L74.7695 159.169ZM5.69065 114.851L7.53841 114.086L5.69065 114.851ZM49.4805 139.77L49.4461 141.77L49.4805 139.77ZM27.5977 136.758L26.8323 138.606H26.8323L27.5977 136.758ZM161.444 114.851L163.291 115.616L161.444 114.851ZM117.653 139.77L117.619 137.77L117.653 139.77ZM139.537 136.758L140.302 138.606L139.537 136.758ZM145.196 8.1759L144.151 9.88118L145.196 8.1759ZM158.56 21.5397L160.265 20.4947V20.4947L158.56 21.5397ZM21.9381 8.1759L20.8931 6.47062L21.9381 8.1759ZM8.57434 21.5397L10.2796 22.5847L8.57434 21.5397ZM62.5407 141.538L63.5463 139.809H63.5463L62.5407 141.538ZM75.3909 101.856L76.5775 100.246L75.3909 101.856ZM83.5672 51.6449L82.1381 53.0442C82.5143 53.4284 83.0294 53.6449 83.5672 53.6449C84.1049 53.6449 84.62 53.4284 84.9962 53.0442L83.5672 51.6449ZM91.7435 101.856L90.5569 100.246V100.246L91.7435 101.856ZM83.5672 105.92L83.5672 103.92H83.5672V105.92ZM94.0856 160.188L98.4743 152.774L95.0321 150.736L90.6434 158.151L94.0856 160.188ZM68.6597 152.774L73.0484 160.188L76.4906 158.151L72.1019 150.736L68.6597 152.774ZM90.6434 158.151C87.5062 163.451 79.6278 163.451 76.4906 158.151L73.0484 160.188C77.7345 168.105 89.3995 168.105 94.0856 160.188L90.6434 158.151ZM71.4235 4.21094H95.7108V0.210938H71.4235V4.21094ZM162.525 71.0251V79.1208H166.525V71.0251H162.525ZM4.60938 79.1208V71.0251H0.609375V79.1208H4.60938ZM0.609375 79.1208C0.609375 88.5239 0.608292 95.6763 0.999173 101.405C1.39128 107.152 2.18449 111.613 3.84289 115.616L7.53841 114.086C6.11554 110.65 5.36811 106.676 4.98989 101.133C4.61046 95.5718 4.60938 88.5786 4.60938 79.1208H0.609375ZM49.515 137.77C39.3517 137.595 33.3229 136.965 28.363 134.91L26.8323 138.606C32.5638 140.98 39.2832 141.595 49.4461 141.77L49.515 137.77ZM3.84289 115.616C8.15424 126.025 16.4238 134.294 26.8323 138.606L28.363 134.91C18.9346 131.005 11.4438 123.514 7.53841 114.086L3.84289 115.616ZM162.525 79.1208C162.525 88.5786 162.524 95.5718 162.144 101.133C161.766 106.676 161.019 110.65 159.596 114.086L163.291 115.616C164.95 111.613 165.743 107.152 166.135 101.405C166.526 95.6763 166.525 88.5239 166.525 79.1208H162.525ZM117.688 141.77C127.851 141.595 134.571 140.98 140.302 138.606L138.771 134.91C133.811 136.965 127.782 137.595 117.619 137.77L117.688 141.77ZM159.596 114.086C155.691 123.514 148.2 131.005 138.771 134.91L140.302 138.606C150.711 134.294 158.98 126.025 163.291 115.616L159.596 114.086ZM95.7108 4.21094C109 4.21094 118.827 4.21305 126.552 4.94758C134.247 5.67928 139.651 7.12364 144.151 9.88118L146.241 6.47062C141.007 3.2632 134.919 1.72508 126.93 0.965538C118.972 0.208827 108.923 0.210938 95.7108 0.210938V4.21094ZM166.525 71.0251C166.525 57.8133 166.527 47.764 165.77 39.8054C165.011 31.817 163.473 25.7287 160.265 20.4947L156.855 22.5847C159.612 27.0846 161.057 32.4884 161.788 40.184C162.523 47.9094 162.525 57.7358 162.525 71.0251H166.525ZM144.151 9.88118C149.329 13.054 153.682 17.4071 156.855 22.5847L160.265 20.4947C156.763 14.7789 151.957 9.97325 146.241 6.47062L144.151 9.88118ZM71.4235 0.210938C58.2117 0.210938 48.1625 0.208827 40.2039 0.965538C32.2155 1.72508 26.1271 3.2632 20.8931 6.47062L22.9831 9.88118C27.483 7.12364 32.8869 5.67928 40.5825 4.94758C48.3078 4.21305 58.1343 4.21094 71.4235 4.21094V0.210938ZM4.60938 71.0251C4.60938 57.7358 4.61149 47.9094 5.34602 40.184C6.07772 32.4884 7.52207 27.0846 10.2796 22.5847L6.86906 20.4947C3.66164 25.7287 2.12352 31.817 1.36398 39.8054C0.607265 47.764 0.609375 57.8133 0.609375 71.0251H4.60938ZM20.8931 6.47062C15.1773 9.97325 10.3717 14.7789 6.86906 20.4947L10.2796 22.5847C13.4524 17.4071 17.8056 13.054 22.9831 9.88118L20.8931 6.47062ZM72.1019 150.736C70.4191 147.893 69.0877 145.64 67.8257 143.908C66.5391 142.143 65.2371 140.793 63.5463 139.809L61.5352 143.267C62.5783 143.874 63.4943 144.756 64.5932 146.264C65.7167 147.806 66.9384 149.865 68.6597 152.774L72.1019 150.736ZM49.4461 141.77C52.9253 141.83 55.3982 141.874 57.3469 142.09C59.2585 142.302 60.4987 142.664 61.5352 143.267L63.5463 139.809C61.8489 138.822 60.0011 138.36 57.7871 138.114C55.6102 137.873 52.9199 137.829 49.515 137.77L49.4461 141.77ZM98.4743 152.774C100.196 149.865 101.417 147.806 102.541 146.264C103.64 144.756 104.556 143.874 105.599 143.267L103.588 139.809C101.897 140.793 100.595 142.143 99.3083 143.908C98.0462 145.64 96.7149 147.893 95.0321 150.736L98.4743 152.774ZM117.619 137.77C114.214 137.829 111.524 137.873 109.347 138.114C107.133 138.36 105.285 138.822 103.588 139.809L105.599 143.267C106.635 142.664 107.876 142.302 109.787 142.09C111.736 141.874 114.209 141.83 117.688 141.77L117.619 137.77ZM76.5775 100.246C71.2597 96.3265 64.3254 90.675 58.7403 84.2964C53.0931 77.8469 49.1362 71.003 49.1362 64.6679H45.1362C45.1362 72.5213 49.936 80.3132 55.7309 86.9314C61.5879 93.6205 68.781 99.4686 74.2043 103.466L76.5775 100.246ZM49.1362 64.6679C49.1362 54.4466 53.8143 47.9008 59.9046 45.6235C66.0173 43.3378 74.3239 45.0634 82.1381 53.0442L84.9962 50.2457C76.417 41.4837 66.5081 38.8838 58.5037 41.8769C50.4768 44.8783 45.1362 53.2154 45.1362 64.6679H49.1362ZM92.93 103.466C98.3534 99.4687 105.546 93.6206 111.403 86.9315C117.198 80.3133 121.998 72.5214 121.998 64.6678H117.998C117.998 71.0031 114.041 77.847 108.394 84.2965C102.809 90.6751 95.8746 96.3266 90.5569 100.246L92.93 103.466ZM121.998 64.6678C121.998 53.2153 116.657 44.8783 108.631 41.8769C100.626 38.8838 90.7173 41.4837 82.1381 50.2457L84.9962 53.0442C92.8104 45.0634 101.117 43.3378 107.23 45.6235C113.32 47.9008 117.998 54.4465 117.998 64.6678H121.998ZM74.2043 103.466C77.7146 106.053 80.1165 107.92 83.5672 107.92V103.92C81.6959 103.92 80.4209 103.078 76.5775 100.246L74.2043 103.466ZM90.5569 100.246C86.7134 103.078 85.4385 103.92 83.5672 103.92L83.5672 107.92C87.0178 107.92 89.4198 106.053 92.93 103.466L90.5569 100.246Z" fill="white"/>
<path d="M228.216 151.31L226.354 153.162C226.354 153.162 221.927 157.563 209.845 145.549C197.762 133.536 202.189 129.134 202.189 129.134L203.362 127.968C206.25 125.095 206.523 120.484 204.002 117.117L198.846 110.229C195.727 106.062 189.698 105.512 186.123 109.067L179.705 115.449C177.932 117.212 176.744 119.497 176.888 122.032C177.256 128.518 180.191 142.472 196.565 158.754C213.93 176.019 230.222 176.706 236.885 176.085C238.992 175.888 240.825 174.815 242.302 173.346L248.11 167.571C252.031 163.672 250.926 156.989 245.909 154.262L238.097 150.015C234.804 148.225 230.79 148.751 228.216 151.31Z" fill="#595959"/>
<path d="M226.354 153.162L225.296 152.098L226.354 153.162ZM228.216 151.31L229.274 152.374L228.216 151.31ZM238.097 150.015L237.381 151.333L238.097 150.015ZM245.909 154.262L245.193 155.58L245.909 154.262ZM248.11 167.571L249.168 168.635L248.11 167.571ZM242.302 173.346L241.244 172.283L242.302 173.346ZM236.885 176.085L237.024 177.578L236.885 176.085ZM196.565 158.754L197.623 157.69L196.565 158.754ZM176.888 122.032L175.39 122.117L175.39 122.117L176.888 122.032ZM203.362 127.968L204.419 129.032L203.362 127.968ZM204.002 117.117L205.203 116.218L204.002 117.117ZM198.846 110.229L197.646 111.128V111.128L198.846 110.229ZM186.123 109.067L187.18 110.131V110.131L186.123 109.067ZM179.705 115.449L178.647 114.385H178.647L179.705 115.449ZM209.845 145.549L210.902 144.486L209.845 145.549ZM227.411 154.226L229.274 152.374L227.158 150.247L225.296 152.098L227.411 154.226ZM237.381 151.333L245.193 155.58L246.626 152.944L238.814 148.697L237.381 151.333ZM247.053 166.507L241.244 172.283L243.36 174.41L249.168 168.635L247.053 166.507ZM236.746 174.591C230.442 175.179 214.617 174.587 197.623 157.69L195.508 159.817C213.243 177.452 230.002 178.233 237.024 177.578L236.746 174.591ZM197.623 157.69C181.515 141.674 178.733 128.069 178.385 121.947L175.39 122.117C175.779 128.966 178.867 143.271 195.508 159.817L197.623 157.69ZM203.246 130.198L204.419 129.032L202.304 126.904L201.131 128.07L203.246 130.198ZM205.203 116.218L200.047 109.33L197.646 111.128L202.802 118.016L205.203 116.218ZM185.065 108.004L178.647 114.385L180.762 116.512L187.18 110.131L185.065 108.004ZM202.189 129.134C201.131 128.07 201.13 128.072 201.128 128.073C201.128 128.074 201.126 128.075 201.125 128.076C201.123 128.078 201.121 128.081 201.119 128.083C201.115 128.087 201.11 128.092 201.105 128.097C201.095 128.107 201.085 128.118 201.073 128.131C201.05 128.156 201.022 128.187 200.992 128.223C200.932 128.295 200.859 128.389 200.78 128.505C200.622 128.739 200.44 129.062 200.282 129.481C199.962 130.33 199.763 131.517 200.004 133.067C200.478 136.126 202.648 140.509 208.787 146.613L210.902 144.486C204.959 138.576 203.301 134.751 202.968 132.607C202.805 131.554 202.957 130.89 203.09 130.538C203.158 130.357 203.227 130.242 203.264 130.188C203.283 130.161 203.293 130.148 203.292 130.15C203.291 130.151 203.287 130.155 203.28 130.163C203.276 130.167 203.272 130.172 203.266 130.178C203.263 130.181 203.26 130.184 203.257 130.187C203.255 130.189 203.254 130.191 203.252 130.192C203.251 130.193 203.25 130.195 203.249 130.195C203.248 130.196 203.246 130.198 202.189 129.134ZM208.787 146.613C214.927 152.719 219.332 154.873 222.403 155.344C223.957 155.582 225.147 155.384 225.997 155.068C226.417 154.911 226.741 154.731 226.975 154.574C227.092 154.496 227.186 154.424 227.258 154.364C227.294 154.334 227.325 154.307 227.351 154.283C227.363 154.272 227.375 154.261 227.385 154.251C227.39 154.247 227.395 154.242 227.399 154.238C227.401 154.236 227.404 154.234 227.406 154.232C227.407 154.231 227.408 154.229 227.409 154.229C227.41 154.227 227.411 154.226 226.354 153.162C225.296 152.098 225.298 152.097 225.299 152.096C225.299 152.095 225.301 152.094 225.302 152.093C225.303 152.091 225.305 152.089 225.307 152.088C225.31 152.085 225.313 152.082 225.316 152.079C225.322 152.073 225.327 152.069 225.331 152.065C225.339 152.058 225.343 152.054 225.344 152.053C225.346 152.052 225.333 152.063 225.305 152.081C225.25 152.118 225.134 152.188 224.95 152.256C224.592 152.389 223.921 152.541 222.858 152.378C220.694 152.046 216.845 150.394 210.902 144.486L208.787 146.613ZM200.047 109.33C196.415 104.478 189.326 103.766 185.065 108.004L187.18 110.131C190.07 107.257 195.039 107.646 197.646 111.128L200.047 109.33ZM178.385 121.947C178.272 119.96 179.197 118.069 180.762 116.512L178.647 114.385C176.667 116.354 175.215 119.034 175.39 122.117L178.385 121.947ZM241.244 172.283C239.94 173.579 238.415 174.435 236.746 174.591L237.024 177.578C239.57 177.341 241.71 176.05 243.36 174.41L241.244 172.283ZM204.419 129.032C207.864 125.606 208.15 120.154 205.203 116.218L202.802 118.016C204.896 120.814 204.637 124.585 202.304 126.904L204.419 129.032ZM245.193 155.58C249.391 157.862 250.211 163.367 247.053 166.507L249.168 168.635C253.852 163.978 252.46 156.116 246.626 152.944L245.193 155.58ZM229.274 152.374C231.357 150.303 234.643 149.845 237.381 151.333L238.814 148.697C234.964 146.604 230.224 147.199 227.158 150.247L229.274 152.374Z" fill="white"/>
<rect x="104.058" y="160.162" width="89.0224" height="71.2184" rx="20" fill="white"/>
<rect x="104.058" y="160.162" width="89.0224" height="71.2184" rx="20" stroke="white"/>
<path fill-rule="evenodd" clip-rule="evenodd" d="M112.896 168.18C108.162 172.914 108.162 180.533 108.162 195.771C108.162 211.01 108.162 218.629 112.896 223.363C117.63 228.097 125.249 228.097 140.487 228.097H156.65C171.888 228.097 179.507 228.097 184.241 223.363C188.975 218.629 188.975 211.01 188.975 195.771C188.975 180.533 188.975 172.914 184.241 168.18C179.507 163.446 171.888 163.446 156.65 163.446H140.487C125.249 163.446 117.63 163.446 112.896 168.18ZM175.14 177.669C176.212 178.955 176.038 180.865 174.752 181.937L165.877 189.333C162.296 192.318 159.393 194.737 156.831 196.384C154.162 198.101 151.563 199.185 148.569 199.185C145.574 199.185 142.975 198.101 140.306 196.384C137.744 194.737 134.841 192.318 131.26 189.333L122.385 181.937C121.099 180.865 120.925 178.955 121.997 177.669C123.068 176.383 124.979 176.209 126.265 177.281L134.988 184.55C138.758 187.692 141.375 189.866 143.585 191.287C145.724 192.663 147.174 193.124 148.569 193.124C149.963 193.124 151.413 192.663 153.552 191.287C155.762 189.866 158.379 187.692 162.149 184.55L170.872 177.281C172.158 176.209 174.069 176.383 175.14 177.669Z" fill="#767676" fill-opacity="0.7"/>
</svg>
