<?xml version="1.0" encoding="UTF-8" standalone="no"?><!DOCTYPE svg PUBLIC "-//W3C//DTD SVG 1.1//EN" "http://www.w3.org/Graphics/SVG/1.1/DTD/svg11.dtd"><svg width="100%" height="100%" viewBox="0 0 567 223" version="1.1" xmlns="http://www.w3.org/2000/svg" xmlns:xlink="http://www.w3.org/1999/xlink" xml:space="preserve" xmlns:serif="http://www.serif.com/" style="fill-rule:evenodd;clip-rule:evenodd;stroke-linecap:round;stroke-linejoin:round;stroke-miterlimit:1.5;"><g><rect x="0.5" y="0.5" width="565.567" height="221.743" style="fill:#0a23fb;stroke:#0a23fb;stroke-width:1px;"/><g><path d="M37.439,99.218l-0,-65.481l32.874,0l28.409,42.937l27.648,-42.937l33.35,0l-0,65.481l-22.803,-0l-0,-44.153l-28.409,44.153l-19.097,-0l-29.169,-44.059l-0,44.059l-22.803,-0Z" style="fill:#fff;fill-rule:nonzero;stroke:#fff;stroke-width:1px;stroke-linecap:butt;stroke-miterlimit:2;"/><path d="M278.2,99.218l-25.938,-0l-6.461,-9.822l-49.977,-0l-6.365,9.822l-25.939,-0l42.851,-65.481l28.979,0l42.85,65.481Zm-71.449,-26.66l28.124,0l-14.062,-21.515l-14.062,21.515Z" style="fill:#fff;fill-rule:nonzero;stroke:#fff;stroke-width:1px;stroke-linecap:butt;stroke-miterlimit:2;"/><path d="M326.942,61.894l54.632,0l-0,37.324l-15.867,-0l-4.466,-7.671c-0.253,0.624 -0.728,1.419 -1.425,2.386c-0.697,0.966 -1.742,1.917 -3.136,2.853c-1.393,0.935 -3.183,1.73 -5.368,2.385c-2.185,0.655 -4.893,0.982 -8.123,0.982l-28.219,0c-6.778,0 -12.494,-0.873 -17.15,-2.619c-4.655,-1.746 -8.44,-4.116 -11.354,-7.109c-2.913,-2.994 -5.02,-6.486 -6.318,-10.477c-1.299,-3.991 -1.948,-8.232 -1.948,-12.722c0,-4.49 0.649,-8.809 1.948,-12.956c1.298,-4.147 3.405,-7.811 6.318,-10.991c2.914,-3.181 6.699,-5.722 11.354,-7.624c4.656,-1.902 10.372,-2.853 17.15,-2.853l30.214,0c5.321,0 10.055,0.639 14.204,1.918c4.149,1.278 7.696,2.993 10.642,5.145c2.945,2.151 5.32,4.692 7.126,7.623c1.805,2.931 3.087,6.018 3.848,9.261l-24.514,0c-0.886,-1.933 -2.771,-3.477 -5.653,-4.63c-2.882,-1.154 -6.508,-1.731 -10.879,-1.731l-19.667,0c-3.928,0 -7.126,0.468 -9.597,1.403c-2.47,0.936 -4.434,2.183 -5.89,3.742c-1.457,1.559 -2.455,3.352 -2.993,5.379c-0.539,2.027 -0.808,4.1 -0.808,6.221c0,2.12 0.269,4.131 0.808,6.033c0.538,1.902 1.536,3.555 2.993,4.958c1.456,1.403 3.42,2.51 5.89,3.321c2.471,0.81 5.669,1.216 9.597,1.216l20.617,-0c5.068,-0 9.011,-0.562 11.829,-1.684c2.819,-1.123 4.798,-2.993 5.939,-5.613l-31.734,0l-0,-13.47Z" style="fill:#fff;fill-rule:nonzero;stroke:#fff;stroke-width:1px;stroke-linecap:butt;stroke-miterlimit:2;"/><rect x="393.45" y="33.737" width="22.803" height="65.48" style="fill:#fff;fill-rule:nonzero;stroke:#fff;stroke-width:1px;stroke-linecap:butt;stroke-miterlimit:2;"/><path d="M448.557,66.665c0,2.12 0.27,4.147 0.808,6.08c0.538,1.933 1.536,3.633 2.993,5.098c1.457,1.466 3.42,2.635 5.891,3.508c2.47,0.873 5.669,1.31 9.596,1.31l19.667,-0c5.321,-0 9.391,-0.764 12.21,-2.292c2.818,-1.528 4.766,-3.726 5.843,-6.595l23.563,0c-0.634,3.617 -1.805,7.031 -3.516,10.243c-1.71,3.212 -4.038,6.003 -6.983,8.372c-2.945,2.37 -6.556,4.257 -10.831,5.66c-4.276,1.403 -9.296,2.104 -15.06,2.104l-30.214,0c-6.777,0 -12.494,-0.904 -17.15,-2.712c-4.655,-1.809 -8.44,-4.225 -11.354,-7.25c-2.913,-3.025 -5.019,-6.564 -6.318,-10.617c-1.298,-4.054 -1.948,-8.326 -1.948,-12.816c0,-4.49 0.65,-8.777 1.948,-12.862c1.299,-4.085 3.405,-7.702 6.318,-10.851c2.914,-3.149 6.699,-5.644 11.354,-7.483c4.656,-1.84 10.373,-2.76 17.15,-2.76l30.214,0c5.574,0 10.467,0.686 14.68,2.058c4.212,1.372 7.791,3.227 10.736,5.566c2.945,2.338 5.305,5.051 7.078,8.138c1.774,3.087 3.009,6.377 3.706,9.869l-23.848,-0c-1.267,-2.619 -3.278,-4.615 -6.034,-5.987c-2.755,-1.372 -6.603,-2.058 -11.544,-2.058l-19.667,0c-3.927,0 -7.126,0.452 -9.596,1.357c-2.471,0.904 -4.434,2.104 -5.891,3.601c-1.457,1.497 -2.455,3.227 -2.993,5.192c-0.538,1.964 -0.808,4.006 -0.808,6.127Z" style="fill:#fff;fill-rule:nonzero;stroke:#fff;stroke-width:1px;stroke-linecap:butt;stroke-miterlimit:2;"/><path d="M59.652,135.003l-0,10.565l57.105,-0l0,19.017l-57.105,-0l-0,24.299l-22.213,-0l-0,-73.955l85.057,0l-0,20.074l-62.844,-0Z" style="fill:#fff;fill-opacity:0;fill-rule:nonzero;stroke:#fff;stroke-width:1.88px;stroke-linecap:butt;stroke-miterlimit:2;"/><path d="M150.724,153.069c0,2.394 0.263,4.631 0.787,6.708c0.525,2.078 1.496,3.892 2.916,5.441c1.419,1.55 3.332,2.765 5.738,3.645c2.406,0.881 5.522,1.321 9.348,1.321l17.863,-0c3.702,-0 6.787,-0.44 9.255,-1.321c2.468,-0.88 4.412,-2.095 5.831,-3.645c1.419,-1.549 2.422,-3.363 3.008,-5.441c0.586,-2.077 0.879,-4.314 0.879,-6.708l0,-38.14l22.213,0l0,38.245c0,5.001 -0.663,9.738 -1.99,14.21c-1.326,4.473 -3.44,8.382 -6.34,11.727c-2.9,3.346 -6.633,5.987 -11.199,7.924c-4.566,1.937 -10.088,2.905 -16.567,2.905l-28.136,0c-6.602,0 -12.171,-0.968 -16.706,-2.905c-4.535,-1.937 -8.222,-4.56 -11.06,-7.871c-2.839,-3.31 -4.89,-7.202 -6.155,-11.674c-1.265,-4.473 -1.897,-9.244 -1.897,-14.316l-0,-38.245l22.212,0l0,38.14Z" style="fill:#fff;fill-opacity:0;fill-rule:nonzero;stroke:#fff;stroke-width:1.88px;stroke-linecap:butt;stroke-miterlimit:2;"/><path d="M341.015,188.884l-24.064,-0l-54.607,-47.437l0,47.437l-22.213,-0l0,-74.061l26.563,0l52.108,45.324l-0,-45.218l22.213,0l-0,73.955Z" style="fill:#fff;fill-opacity:0;fill-rule:nonzero;stroke:#fff;stroke-width:1.88px;stroke-linecap:butt;stroke-miterlimit:2;"/><path d="M353.972,114.929l63.955,0c6.478,0 12.001,1.004 16.567,3.011c4.566,2.007 8.299,4.702 11.199,8.082c2.9,3.381 5.013,7.325 6.34,11.833c1.326,4.508 1.99,9.262 1.99,14.263c-0,5.001 -0.664,9.737 -1.99,14.21c-1.327,4.472 -3.44,8.381 -6.34,11.727c-2.9,3.345 -6.633,5.987 -11.199,7.924c-4.566,1.937 -10.089,2.905 -16.567,2.905l-63.955,-0l0,-73.955Zm22.213,19.862l0,34.336l36.651,0c3.702,0 6.788,-0.44 9.256,-1.32c2.468,-0.881 4.411,-2.096 5.83,-3.645c1.42,-1.55 2.422,-3.363 3.008,-5.441c0.587,-2.078 0.88,-4.314 0.88,-6.709c-0,-2.395 -0.293,-4.631 -0.88,-6.709c-0.586,-2.077 -1.588,-3.891 -3.008,-5.441c-1.419,-1.549 -3.362,-2.782 -5.83,-3.697c-2.468,-0.916 -5.554,-1.374 -9.256,-1.374l-36.651,0Z" style="fill:#fff;fill-opacity:0;fill-rule:nonzero;stroke:#fff;stroke-width:1.88px;stroke-linecap:butt;stroke-miterlimit:2;"/></g></g></svg>