<?xml version="1.0" encoding="UTF-8" standalone="no"?><!DOCTYPE svg PUBLIC "-//W3C//DTD SVG 1.1//EN" "http://www.w3.org/Graphics/SVG/1.1/DTD/svg11.dtd"><svg width="100%" height="100%" viewBox="0 0 650 221" version="1.1" xmlns="http://www.w3.org/2000/svg" xmlns:xlink="http://www.w3.org/1999/xlink" xml:space="preserve" xmlns:serif="http://www.serif.com/" style="fill-rule:evenodd;clip-rule:evenodd;stroke-linejoin:round;stroke-miterlimit:2;"><path d="M611.11,3.723c-4.322,-0.011 -8.603,0.832 -12.598,2.48c-3.995,1.648 -7.626,4.068 -10.683,7.123l-48.538,48.532l-48.535,-48.532c-6.187,-6.152 -14.557,-9.604 -23.281,-9.604c-8.725,-0 -17.095,3.452 -23.282,9.604l-1.858,1.855c-6.151,6.187 -9.604,14.557 -9.604,23.281c-0,8.725 3.453,17.095 9.604,23.282l48.539,48.539l-48.539,48.539c-6.152,6.186 -9.604,14.556 -9.604,23.28c-0,8.726 3.452,17.095 9.604,23.282l1.855,1.857c6.188,6.151 14.557,9.603 23.282,9.603c8.724,0 17.094,-3.452 23.281,-9.603l48.538,-48.539l48.539,48.539c6.187,6.151 14.558,9.603 23.282,9.603c8.724,0 17.094,-3.452 23.282,-9.603l1.855,-1.857c6.151,-6.187 9.604,-14.556 9.604,-23.282c-0,-8.724 -3.453,-17.094 -9.604,-23.28l-48.539,-48.539l48.539,-48.539c6.151,-6.187 9.603,-14.557 9.603,-23.282c-0,-8.724 -3.452,-17.094 -9.603,-23.281l-1.857,-1.855c-3.057,-3.054 -6.688,-5.475 -10.683,-7.123c-3.994,-1.648 -8.275,-2.49 -12.597,-2.48l-0.002,0Z" style="fill:#fff;fill-rule:nonzero;"/><path d="M612.933,6.427c3.721,-0.017 7.41,0.705 10.851,2.124c3.441,1.418 6.567,3.505 9.196,6.14l1.903,1.902c5.292,5.33 8.262,12.536 8.262,20.047c-0,7.51 -2.97,14.716 -8.262,20.046l-49.769,49.769c-0.502,0.503 -0.901,1.099 -1.173,1.755c-0.271,0.656 -0.411,1.36 -0.411,2.07c-0,0.711 0.14,1.414 0.411,2.07c0.272,0.657 0.671,1.253 1.173,1.755l49.769,49.77c5.308,5.321 8.29,12.53 8.29,20.046c-0,7.518 -2.982,14.727 -8.29,20.048l-1.902,1.902c-5.329,5.293 -12.536,8.264 -20.048,8.264c-7.51,0 -14.717,-2.971 -20.047,-8.264l-49.769,-49.769c-0.502,-0.502 -1.098,-0.901 -1.754,-1.173c-0.656,-0.271 -1.36,-0.412 -2.071,-0.412c-0.709,0 -1.413,0.141 -2.069,0.412c-0.656,0.272 -1.252,0.671 -1.755,1.173l-49.769,49.769c-5.329,5.293 -12.534,8.264 -20.046,8.264c-7.511,0 -14.718,-2.971 -20.047,-8.264l-1.903,-1.903c-5.309,-5.321 -8.29,-12.53 -8.29,-20.047c0,-7.516 2.981,-14.725 8.29,-20.046l49.769,-49.77c0.502,-0.502 0.901,-1.098 1.173,-1.755c0.271,-0.656 0.412,-1.359 0.412,-2.07c-0,-0.71 -0.141,-1.414 -0.412,-2.07c-0.272,-0.656 -0.671,-1.252 -1.173,-1.755l-49.769,-49.769c-5.293,-5.329 -8.263,-12.535 -8.263,-20.046c-0,-7.512 2.97,-14.718 8.263,-20.047l1.905,-1.904c5.33,-5.292 12.535,-8.262 20.046,-8.262c7.512,0 14.717,2.97 20.048,8.262l49.768,49.769c0.502,0.503 1.098,0.901 1.756,1.173c0.656,0.272 1.359,0.412 2.069,0.412c0.71,-0 1.414,-0.14 2.07,-0.412c0.656,-0.272 1.253,-0.67 1.755,-1.173l49.769,-49.769c2.63,-2.634 5.756,-4.721 9.197,-6.139c3.441,-1.418 7.13,-2.14 10.852,-2.123l-0.005,-0Zm0.005,-5.409c-4.432,-0.011 -8.822,0.853 -12.919,2.543c-4.096,1.69 -7.818,4.172 -10.954,7.304l-49.769,49.769l-49.769,-49.769c-6.343,-6.307 -14.926,-9.847 -23.871,-9.847c-8.945,-0 -17.527,3.54 -23.87,9.847l-1.905,1.904c-6.307,6.343 -9.848,14.925 -9.848,23.871c0,8.945 3.541,17.527 9.848,23.87l49.77,49.77l-49.77,49.768c-6.306,6.345 -9.845,14.926 -9.845,23.872c-0,8.946 3.539,17.527 9.845,23.872l1.902,1.903c6.345,6.306 14.928,9.846 23.872,9.846c8.946,-0 17.528,-3.54 23.872,-9.846l49.769,-49.769l49.769,49.769c6.344,6.306 14.926,9.846 23.872,9.846c8.945,-0 17.527,-3.54 23.872,-9.846l1.902,-1.903c6.306,-6.345 9.845,-14.926 9.845,-23.872c0,-8.946 -3.539,-17.527 -9.845,-23.872l-49.77,-49.768l49.77,-49.77c6.306,-6.343 9.846,-14.925 9.846,-23.87c0,-8.946 -3.54,-17.528 -9.846,-23.871l-1.905,-1.904c-3.134,-3.132 -6.857,-5.614 -10.953,-7.304c-4.096,-1.69 -8.486,-2.554 -12.917,-2.543l0.002,0Z" style="fill:#ed2024;fill-rule:nonzero;"/><path d="M379.437,20.004c-0,-0 -15.278,-16.739 -36.487,-16.739c-9.139,0 -19.376,3.107 -29.971,11.998l0.019,0.034c-2.14,1.693 -4.159,3.533 -6.044,5.507l-43.713,42.841l-44.265,-44.264c-2.474,-3.034 -14.566,-16.555 -33.652,-16.555c-9.633,-0 -21.04,3.448 -33.884,13.442l-0,0.011c-1.626,1.096 -3.144,2.343 -4.535,3.725l-82.058,82.059l0,-70.675c-0.023,-8.262 -3.315,-16.179 -9.155,-22.022c-5.841,-5.843 -13.756,-9.138 -22.017,-9.166l-2.487,-0c-8.264,0.024 -16.183,3.318 -22.026,9.162c-5.843,5.843 -9.137,13.762 -9.161,22.026l0,148.303c-0.036,4.125 0.75,8.216 2.311,12.035c1.562,3.819 3.868,7.288 6.783,10.206l1.758,1.76c5.86,5.826 13.789,9.096 22.053,9.096c8.264,0 16.193,-3.27 22.053,-9.096l48.577,-48.579l36.586,36.584l7.459,7.576c-0,-0 15.281,18.035 36.54,18.035c8.629,-0 18.238,-2.969 28.215,-11.318c0.132,-0.104 0.263,-0.207 0.393,-0.314c0.088,-0.076 0.178,-0.139 0.267,-0.215l-0.011,-0.019c0.663,-0.559 1.318,-1.128 1.941,-1.75l48.318,-48.319l43.639,43.64c1.642,1.631 3.459,3.072 5.421,4.298c6.155,5.45 18.231,13.989 33.549,13.989c9.545,-0 20.343,-3.32 31.728,-12.784l1.007,-0.813c0.15,-0.126 0.292,-0.262 0.426,-0.405c0.556,-0.482 1.104,-0.972 1.63,-1.497l63.157,-68.279c7.394,-7.341 10.975,-15.267 10.641,-23.554c-0.486,-12.009 -9.246,-20.276 -10.722,-21.587l-64.283,-68.377Zm-162.061,89.505l-33.859,33.859l-34.122,-34.119l33.86,-33.86l34.121,34.12Zm128.101,-31.538l31.652,31.649l-33.848,34.067l-34.182,-34.18l34.003,-34.002c0.765,0.815 1.553,1.635 2.375,2.466Z" style="fill:#ed2024;fill-rule:nonzero;"/></svg>